#
# generated by kHED
#
# vertices:
v -9.981172 0.000000 9.981172
v 9.981172 0.000000 9.981172
v -9.981172 0.000000 -10.045566
v 9.981172 0.000000 -10.045566

# texture coords:
vt 0.000000 1.000000 0.0
vt 1.000000 1.000000 0.0
vt 1.000000 0.000000 0.0
vt 0.000000 1.000000 0.0
vt 1.000000 0.000000 0.0
vt 0.000000 0.000000 0.0

# normals:
vn 0.000000 1.000000 0.000000
vn 0.000000 1.000000 0.000000
vn 0.000000 1.000000 0.000000
vn 0.000000 1.000000 0.000000
vn 0.000000 1.000000 0.000000
vn 0.000000 1.000000 0.000000

# triangles:
g Plane 2
usemtl default
s 0
f 1/1/1 2/2/2 4/3/3
f 1/4/4 4/5/5 3/6/6

g