#
# generated by kHED
#
# vertices:
v -9.102576 3.881872 -8.902575
v -12.740369 11.208884 -8.902575
v -9.102576 3.881872 8.838937
v -12.740369 11.208884 8.838937
v 8.838937 1.081872 -8.902575
v 8.838937 18.710020 -8.902575
v 8.838937 1.081872 8.838937
v 8.838937 18.710020 8.838937
v 1.887757 4.872719 0.000000
v 1.887757 4.872719 -9.095094
v 5.717097 1.358934 4.645685
v 4.826143 1.358934 -9.095094
v -1.724097 2.429290 0.000000
v -1.724097 2.429290 -9.095094

# normals:
vn 0.154196 0.988040 0.000000
vn 0.154196 0.988040 0.000000
vn 0.154196 0.988040 0.000000
vn 0.154196 0.988040 0.000000
vn 0.154196 0.988040 0.000000
vn 0.154196 0.988040 0.000000
vn 0.895681 0.444697 0.000000
vn 0.895681 0.444697 0.000000
vn 0.895681 0.444697 0.000000
vn 0.895681 0.444697 0.000000
vn 0.895681 0.444697 0.000000
vn 0.895681 0.444697 0.000000
vn -1.000000 0.000000 0.000000
vn -1.000000 0.000000 0.000000
vn -1.000000 0.000000 0.000000
vn -1.000000 0.000000 0.000000
vn -1.000000 0.000000 0.000000
vn -1.000000 0.000000 0.000000
vn 0.000000 0.000000 1.000000
vn 0.000000 0.000000 1.000000
vn 0.000000 0.000000 1.000000
vn 0.000000 0.000000 1.000000
vn 0.000000 0.000000 1.000000
vn 0.000000 0.000000 1.000000
vn 0.000000 0.000000 -1.000000
vn 0.000000 0.000000 -1.000000
vn 0.000000 0.000000 -1.000000
vn 0.000000 0.000000 -1.000000
vn 0.000000 0.000000 -1.000000
vn 0.000000 0.000000 -1.000000
vn -0.379113 0.560402 0.736358
vn -0.379113 0.560402 0.736358
vn -0.379113 0.560402 0.736358
vn 0.736980 0.675527 -0.022883
vn 0.736980 0.675527 -0.022883
vn 0.767122 0.641502 0.000000
vn 0.736980 0.675527 -0.022883
vn 0.704929 0.707803 -0.045708
vn 0.736980 0.675527 -0.022883
vn -0.560328 0.828271 0.000000
vn -0.560328 0.828271 0.000000
vn -0.560328 0.828271 0.000000
vn -0.560328 0.828271 0.000000
vn -0.560328 0.828271 0.000000
vn -0.560328 0.828271 0.000000

# triangles:
f 1/1/1 3/2/2 7/3/3
f 1/4/4 7/5/5 5/6/6
f 1/7/7 2/8/8 4/9/9
f 1/10/10 4/11/11 3/12/12
f 5/13/13 7/14/14 6/15/15
f 6/16/16 7/17/17 8/18/18
f 1/19/19 5/20/20 6/21/21
f 1/22/22 6/23/23 2/24/24
f 3/25/25 4/26/26 7/27/27
f 7/28/28 4/29/29 8/30/30
f 9/31/31 13/32/32 11/33/33
f 9/34/34 12/35/35 10/36/36
f 9/37/37 11/38/38 12/39/39
f 9/40/40 14/41/41 13/42/42
f 9/43/43 10/44/44 14/45/45
