#
# generated by kHED
#
mtllib sandbox.mtl
# vertices:
v -6.784628 2.521675 -9.804990
v -12.401035 7.739783 -9.804990
v -6.784628 2.521675 9.753655
v -12.401035 7.739783 9.753655
v 9.804990 0.000000 -9.804990
v 9.804990 19.763985 -9.804990
v 9.804990 0.000000 9.753655
v 9.804990 19.763985 9.753655
v -2.496678 5.106842 0.000000
v -2.496678 5.106842 4.993357
v -2.496678 0.907883 0.000000
v -2.496678 0.907883 4.993357
v 2.042737 5.106842 0.000000
v 2.042737 5.106842 4.993357
v 2.042737 0.907883 0.000000
v 2.042737 0.907883 4.993357
v 11.447711 0.000000 -0.128337
v 11.447711 19.799999 -0.102670
v 16.886730 -3.401822 -5.749523
v 16.835394 -3.401822 -3.080101
v 14.741229 -4.638848 0.000000
v 14.741229 -4.638848 -9.999295
v 14.741229 -15.050486 0.000000
v 14.741229 -15.050486 -9.999295
v 28.657774 -4.638848 0.000000
v 28.657774 -4.638848 -9.999295
v 28.657774 -15.050486 0.000000
v 28.657774 -15.050486 -9.999295

# texture coords:
vt 0.000000 0.000000 0.0
vt 0.000000 1.000000 0.0
vt 1.000000 1.000000 0.0
vt 1.000000 0.000000 0.0
vt 1.000000 1.000000 0.0
vt 0.000000 1.000000 0.0
vt 1.000000 0.000000 0.0
vt 0.000000 1.000000 0.0
vt 0.000000 0.000000 0.0
vt 0.000000 0.000000 0.0
vt 1.000000 0.000000 0.0
vt 1.000000 1.000000 0.0
vt 0.000000 0.000000 0.0
vt 1.000000 1.000000 0.0
vt 0.000000 1.000000 0.0
vt 1.000000 0.000000 0.0
vt 0.000000 1.000000 0.0
vt 0.000000 0.000000 0.0
vt 1.000000 0.000000 0.0
vt 1.000000 1.000000 0.0
vt 0.000000 1.000000 0.0
vt 1.000000 0.000000 0.0
vt 0.000000 0.000000 0.0
vt 1.000000 0.500000 0.0
vt 0.000000 0.000000 0.0
vt 1.000000 1.000000 0.0
vt 1.000000 0.500000 0.0
vt 0.000000 0.000000 0.0
vt 1.000000 1.000000 0.0
vt 0.000000 1.000000 0.0
vt 0.000000 0.000000 0.0
vt 1.000000 0.000000 0.0
vt 1.000000 1.000000 0.0
vt 0.000000 0.000000 0.0
vt 0.000000 1.000000 0.0
vt 1.000000 0.000000 0.0
vt 0.000000 1.000000 0.0
vt 1.000000 1.000000 0.0
vt 1.000000 0.000000 0.0
vt 0.000000 0.000000 0.0
vt 1.000000 1.000000 0.0
vt 0.000000 1.000000 0.0
vt 0.000000 0.000000 0.0
vt 1.000000 0.000000 0.0
vt 1.000000 1.000000 0.0
vt 0.000000 0.000000 0.0
vt 0.000000 1.000000 0.0
vt 1.000000 0.000000 0.0
vt 0.000000 1.000000 0.0
vt 1.000000 1.000000 0.0
vt 1.000000 0.000000 0.0
vt 0.000000 0.000000 0.0
vt 1.000000 1.000000 0.0
vt 1.000000 0.000000 0.0
vt 0.000000 0.000000 0.0
vt 0.000000 1.000000 0.0
vt 1.000000 1.000000 0.0
vt 1.004010 0.999856 0.0
vt 0.004010 -0.000144 0.0
vt 0.996197 -0.000145 0.0
vt 1.004010 0.999856 0.0
vt 0.004010 0.999856 0.0
vt 0.004010 -0.000144 0.0
vt 1.000000 0.000000 0.0
vt 1.002611 0.997376 0.0
vt -0.002611 0.002625 0.0
vt -0.002611 0.002625 0.0
vt 1.002611 0.997376 0.0
vt 0.002625 1.002611 0.0
vt 1.000000 1.000000 0.0
vt 0.000000 0.000000 0.0
vt 1.000000 -0.007813 0.0
vt 0.000000 1.000000 0.0
vt 0.000000 0.000000 0.0
vt 1.000000 0.000000 0.0
vt 1.000000 1.000000 0.0
vt 0.000000 0.000000 0.0
vt 1.000000 0.000000 0.0
vt 1.000000 1.000000 0.0
vt 0.000000 1.000000 0.0
vt 0.000000 0.000000 0.0
vt 0.000000 1.000000 0.0
vt 0.000000 0.000000 0.0
vt 1.000000 1.000000 0.0
vt 0.000000 0.000000 0.0
vt 1.000000 0.000000 0.0
vt 1.000000 1.000000 0.0
vt -0.000000 1.000000 0.0
vt 0.999998 -0.000001 0.0
vt 1.000000 0.999999 0.0
vt -0.000000 1.000000 0.0
vt -0.000001 0.000000 0.0
vt 0.999998 -0.000001 0.0
vt 1.000000 1.000000 0.0
vt 0.000000 1.000000 0.0
vt 0.999999 0.000000 0.0
vt 0.000000 1.000000 0.0
vt 0.000000 0.000000 0.0
vt 0.999999 0.000000 0.0
vt 0.000000 0.000000 0.0
vt 1.000000 0.000000 0.0
vt 0.000000 1.000000 0.0
vt 1.000000 0.000000 0.0
vt 1.000000 1.000000 0.0
vt 0.000000 1.000000 0.0

# normals:
vn 0.142221 0.989834 -0.001517
vn 0.150277 0.988644 0.000000
vn 0.138183 0.990351 0.010478
vn 0.680652 0.732607 0.000000
vn 0.680652 0.732607 0.000000
vn 0.680652 0.732607 0.000000
vn 0.680652 0.732607 0.000000
vn 0.680652 0.732607 0.000000
vn 0.680652 0.732607 0.000000
vn 0.000000 0.000000 1.000000
vn 0.000000 0.000000 1.000000
vn 0.000000 0.000000 1.000000
vn 0.000000 0.000000 1.000000
vn 0.000000 0.000000 1.000000
vn 0.000000 0.000000 1.000000
vn 0.000000 0.000000 -1.000000
vn 0.000000 0.000000 -1.000000
vn 0.000000 0.000000 -1.000000
vn 0.000000 0.000000 -1.000000
vn 0.000000 0.000000 -1.000000
vn 0.000000 0.000000 -1.000000
vn 0.150228 0.988322 -0.025503
vn 0.142221 0.989834 -0.001517
vn 0.138188 0.990403 -0.002275
vn 0.142221 0.989834 -0.001517
vn 0.138183 0.990351 0.010478
vn 0.138188 0.990403 -0.002275
vn 0.000000 0.000000 -1.000000
vn 0.000000 0.000000 -1.000000
vn 0.000000 0.000000 -1.000000
vn 0.000000 0.000000 -1.000000
vn 0.000000 0.000000 -1.000000
vn 0.000000 0.000000 -1.000000
vn 0.000000 0.000000 1.000000
vn 0.000000 0.000000 1.000000
vn 0.000000 0.000000 1.000000
vn 0.000000 0.000000 1.000000
vn 0.000000 0.000000 1.000000
vn 0.000000 0.000000 1.000000
vn -1.000000 0.000000 0.000000
vn -1.000000 0.000000 0.000000
vn -1.000000 0.000000 0.000000
vn -1.000000 0.000000 0.000000
vn -1.000000 0.000000 0.000000
vn -1.000000 0.000000 0.000000
vn 1.000000 0.000000 0.000000
vn 1.000000 0.000000 0.000000
vn 1.000000 0.000000 0.000000
vn 1.000000 0.000000 0.000000
vn 1.000000 0.000000 0.000000
vn 1.000000 0.000000 0.000000
vn 0.000000 1.000000 0.000000
vn 0.000000 1.000000 0.000000
vn 0.000000 1.000000 0.000000
vn 0.000000 1.000000 0.000000
vn 0.000000 1.000000 0.000000
vn 0.000000 1.000000 0.000000
vn -0.986463 0.000000 -0.163984
vn -0.986463 0.000000 -0.163984
vn -0.986463 0.000000 -0.163984
vn -0.986394 0.000213 -0.164398
vn -0.986394 0.000213 -0.164398
vn -0.986394 0.000213 -0.164398
vn 0.468249 0.880014 -0.079491
vn 0.468249 0.880014 -0.079491
vn 0.468249 0.880014 -0.079491
vn 0.537907 0.842941 0.010345
vn 0.537907 0.842941 0.010345
vn 0.537907 0.842941 0.010345
vn -0.479933 0.001137 -0.877304
vn -0.479933 0.001137 -0.877304
vn -0.479933 0.001137 -0.877304
vn -0.496948 0.000000 0.867780
vn -0.496948 0.000000 0.867780
vn -0.496948 0.000000 0.867780
vn 0.000000 0.000000 -1.000000
vn 0.000000 0.000000 -1.000000
vn 0.000000 0.000000 -1.000000
vn 0.000000 0.000000 -1.000000
vn 0.000000 0.000000 -1.000000
vn 0.000000 0.000000 -1.000000
vn 0.000000 0.000000 1.000000
vn 0.000000 0.000000 1.000000
vn 0.000000 0.000000 1.000000
vn 0.000000 0.000000 1.000000
vn 0.000000 0.000000 1.000000
vn 0.000000 0.000000 1.000000
vn 1.000000 0.000000 0.000000
vn 1.000000 0.000000 0.000000
vn 1.000000 0.000000 0.000000
vn 1.000000 0.000000 0.000000
vn 1.000000 0.000000 0.000000
vn 1.000000 0.000000 0.000000
vn -1.000000 0.000000 0.000000
vn -1.000000 0.000000 0.000000
vn -1.000000 0.000000 0.000000
vn -1.000000 0.000000 0.000000
vn -1.000000 0.000000 0.000000
vn -1.000000 0.000000 0.000000
vn 0.000000 1.000000 0.000000
vn 0.000000 1.000000 0.000000
vn 0.000000 1.000000 0.000000
vn 0.000000 1.000000 0.000000
vn 0.000000 1.000000 0.000000
vn 0.000000 1.000000 0.000000

# triangles:
usemtl texture
f 1/1/1 3/2/2 7/3/3
f 1/4/4 2/5/5 4/6/6
f 1/7/7 4/8/8 3/9/9
f 1/10/10 5/11/11 6/12/12
f 1/13/13 6/14/14 2/15/15
f 3/16/16 8/17/17 7/18/18
f 3/19/19 4/20/20 8/21/21
f 5/22/22 1/23/23 17/24/24
f 1/25/25 7/26/26 17/27/27
f 9/28/28 15/29/29 11/30/30
f 9/31/31 13/32/32 15/33/33
f 10/34/34 12/35/35 14/36/36
f 12/37/37 16/38/38 14/39/39
f 9/40/40 12/41/41 10/42/42
f 9/43/43 11/44/44 12/45/45
f 13/46/46 14/47/47 15/48/48
f 14/49/49 16/50/50 15/51/51
f 9/52/52 14/53/53 13/54/54
f 9/55/55 10/56/56 14/57/57
f 8/58/58 17/59/59 7/60/60
f 8/61/61 18/62/62 17/63/63
f 5/64/64 17/65/65 19/66/66
f 19/67/67 17/68/68 20/69/69
f 18/70/70 20/71/71 17/72/72
f 6/73/73 5/74/74 19/75/75
f 21/76/76 27/77/77 23/78/78
f 21/79/79 25/80/80 27/81/81
f 22/82/82 24/83/83 26/84/84
f 24/85/85 28/86/86 26/87/87
f 21/88/88 24/89/89 22/90/90
f 21/91/91 23/92/92 24/93/93
f 25/94/94 26/95/95 27/96/96
f 26/97/97 28/98/98 27/99/99
f 23/100/100 27/101/101 24/102/102
f 27/103/103 28/104/104 24/105/105
